<?xml version="1.0" encoding="UTF-8"?>
<svg id="Livello_1" data-name="Livello 1" xmlns="http://www.w3.org/2000/svg" viewBox="0 0 1072.18 295.9">
  <defs>
    <style>
      .cls-1 {
        fill: #ff7230;
      }
    </style>
  </defs>
  <polygon class="cls-1" points="712.09 79.54 685.62 79.54 685.62 0 675.9 0 675.9 88.77 712.09 88.77 712.09 79.54"/>
  <rect class="cls-1" x="715.91" y="0" width="9.72" height="88.77"/>
  <path class="cls-1" d="M766.39,41.94c4.86-3.28,7.36-9.02,7.36-17.12v-3.66C773.75,6.53,767.39,0,753.18,0h-19.74v88.77h20.94c13.92,0,20.7-7.02,20.7-21.4v-7.15c0-10.47-4.12-15.71-8.69-18.29ZM743.16,9.23h9.89c8.1,0,10.97,3.24,10.97,12.43v4.11c0,8.77-3.41,12.18-12.18,12.18h-8.69V9.23ZM765.35,67.25c0,8.98-2.99,12.3-10.97,12.3h-11.22v-32.37h8.93c9.89,0,13.26,3.28,13.26,12.92v7.15Z"/>
  <polygon class="cls-1" points="817.98 79.54 790.42 79.54 790.42 47.19 813.26 47.19 813.26 37.96 790.42 37.96 790.42 9.23 817.98 9.23 817.98 0 780.7 0 780.7 88.77 817.98 88.77 817.98 79.54"/>
  <path class="cls-1" d="M863.22,86.11c-.67-2.24-1-5.44-1-9.56v-15.5c0-5.9-.87-13.63-7.48-17.46,4.95-3.12,7.48-8.89,7.48-17.2v-5.24C862.22,6.53,855.87,0,841.65,0h-19.49v88.77h9.72v-40.02h8.69c8.89,0,11.93,3.03,11.93,12.09v15.71c0,3.91.33,7.48,1,10.6l.37,1.62h10.14l-.79-2.66ZM852.5,27.35c0,8.69-3.41,12.05-12.18,12.05h-8.44V9.23h9.64c8.1,0,10.97,3.24,10.97,12.43v5.69Z"/>
  <path class="cls-1" d="M894.6,0h-10.89l-18.41,88.77h9.6l3.99-19.45h20.28l4.11,19.45h9.93L894.6,0ZM880.68,60.18l8.27-40.23,8.39,40.23h-16.66Z"/>
  <path class="cls-1" d="M700.94,103.57h-10.89l-18.37,88.77h9.56l3.99-19.49h20.32l4.11,19.49h9.93l-18.66-88.77ZM687.06,163.74l8.23-40.23,8.44,40.23h-16.66Z"/>
  <path class="cls-1" d="M741.92,102.34c-12.39,0-20.09,8.3-20.09,21.66v47.87c0,13.36,7.7,21.66,20.09,21.66,12.73,0,20.33-8.1,20.33-21.66v-13.08s-9.48,0-9.48,0v13.32c0,7.74-3.91,12.19-10.74,12.19-6.67,0-10.49-4.44-10.49-12.19v-48.35c0-7.74,3.82-12.19,10.49-12.19,6.82,0,10.74,4.44,10.74,12.19v10.9s9.48,0,9.48,0v-10.66c0-13.56-7.6-21.66-20.33-21.66Z"/>
  <path class="cls-1" d="M807.7,158.79h-9.48s0,13.32,0,13.32c0,7.74-3.91,12.19-10.73,12.19-6.67,0-10.49-4.44-10.49-12.19v-48.35c0-7.74,3.82-12.19,10.49-12.19,6.82,0,10.73,4.44,10.73,12.19v10.9s9.48,0,9.48,0v-10.66c0-13.56-7.6-21.66-20.33-21.66-12.39,0-20.09,8.3-20.09,21.66v47.87c0,13.36,7.7,21.66,20.09,21.66,12.73,0,20.33-8.1,20.33-21.66v-13.08Z"/>
  <path class="cls-1" d="M838.12,103.57h-10.85l-18.41,88.77h9.56l3.99-19.49h20.32l4.11,19.49h9.93l-18.66-88.77ZM824.24,163.74l8.23-40.23,8.44,40.23h-16.66Z"/>
  <path class="cls-1" d="M880.8,103.57h-20.45v88.77h20.45c13.84,0,20.57-7.31,20.57-22.27v-44.26c0-14.96-6.73-22.23-20.57-22.23ZM891.65,170.31c0,9.43-2.87,12.76-10.97,12.76h-10.6v-70.28h10.6c8.1,0,10.97,3.33,10.97,12.76v44.76Z"/>
  <polygon class="cls-1" points="945.5 112.78 945.5 103.55 908.23 103.55 908.23 192.32 945.5 192.32 945.5 183.09 917.94 183.09 917.94 150.74 940.79 150.74 940.79 141.5 917.94 141.5 917.94 112.78 945.5 112.78"/>
  <polygon class="cls-1" points="959.04 132.51 972.09 192.32 980.39 192.32 993.44 132.51 993.44 192.32 1003.16 192.32 1003.16 103.55 990.7 103.55 976.42 169.64 962.14 103.55 949.68 103.55 949.68 192.32 959.04 192.32 959.04 132.51"/>
  <rect class="cls-1" x="1010.97" y="103.55" width="9.72" height="88.77"/>
  <path class="cls-1" d="M1053.52,103.57h-10.85l-18.41,88.77h9.6l3.99-19.49h20.28l4.11,19.49h9.93l-18.66-88.77ZM1039.64,163.74l8.23-40.23,8.44,40.23h-16.66Z"/>
  <path class="cls-1" d="M708.87,249.02c4.86-3.24,7.31-8.98,7.31-17.12v-3.62c0-14.63-6.32-21.2-20.57-21.2h-19.7v88.77h20.9c13.92,0,20.7-6.98,20.7-21.4v-7.15c0-10.47-4.07-15.71-8.64-18.29ZM685.6,216.36h9.89c8.1,0,10.97,3.24,10.97,12.42v4.11c0,8.77-3.41,12.18-12.18,12.18h-8.69v-28.72ZM707.79,274.33c0,8.98-2.95,12.3-10.97,12.3h-11.22v-32.33h8.94c9.93,0,13.26,3.24,13.26,12.92v7.11Z"/>
  <polygon class="cls-1" points="723.16 295.88 760.44 295.88 760.44 286.64 732.88 286.64 732.88 254.3 755.73 254.3 755.73 245.06 732.88 245.06 732.88 216.34 760.44 216.34 760.44 207.11 723.16 207.11 723.16 295.88"/>
  <polygon class="cls-1" points="774.34 207.11 764.62 207.11 764.62 295.88 800.81 295.88 800.81 286.64 774.34 286.64 774.34 207.11"/>
  <polygon class="cls-1" points="814.35 207.11 804.63 207.11 804.63 295.88 840.82 295.88 840.82 286.64 814.35 286.64 814.35 207.11"/>
  <polygon class="cls-1" points="844.64 295.88 881.92 295.88 881.92 286.64 854.36 286.64 854.36 254.3 877.21 254.3 877.21 245.06 854.36 245.06 854.36 216.34 881.92 216.34 881.92 207.11 844.64 207.11 844.64 295.88"/>
  <path class="cls-1" d="M930.13,207.09h-10.89l-18.37,88.77h9.56l3.99-19.45h20.32l4.07,19.45h9.93l-18.62-88.77ZM916.25,267.31l8.23-40.27,8.39,40.27h-16.62Z"/>
  <path class="cls-1" d="M993.38,293.2c-.66-2.2-1-5.44-1-9.56v-15.46c0-5.94-.87-13.63-7.48-17.46,4.99-3.16,7.48-8.93,7.48-17.25v-5.19c0-14.63-6.32-21.2-20.57-21.2h-19.49v88.77h9.72v-39.98h8.69c8.94,0,11.97,3.03,11.97,12.05v15.71c0,3.95.33,7.52,1,10.6l.33,1.62h10.18l-.83-2.66ZM982.7,234.43c0,8.69-3.45,12.09-12.22,12.09h-8.44v-30.17h9.64c8.1,0,11.01,3.24,11.01,12.42v5.65Z"/>
  <polygon class="cls-1" points="994.89 216.34 1010.97 216.34 1010.97 295.88 1020.68 295.88 1020.68 216.34 1036.76 216.34 1036.76 207.11 994.89 207.11 994.89 216.34"/>
  <rect class="cls-1" x="1040.58" y="207.11" width="9.72" height="88.77"/>
  <polygon class="cls-1" points="49.62 0 0 0 0 295.88 115.41 295.88 122.81 250.44 49.62 250.44 49.62 0"/>
  <polygon class="cls-1" points="245.93 0 180.59 0 132.4 295.88 178.77 295.88 186.7 238.7 193.06 195.34 211.4 63.19 230.12 195.34 236.48 238.7 244.42 295.88 294.12 295.88 246.19 1.55 245.93 0"/>
  <path class="cls-1" d="M448.68,158.92c-5.32-9.47-13.22-16.42-23.52-20.7,18.37-8.98,27.68-28.3,27.68-57.48v-11.72C452.83,21.95,430.6,0,382.93,0h-71.15v295.89h74.06c23.15,0,41.06-6.15,53.24-18.29,12.18-12.13,18.33-29.92,18.33-52.86v-25.06c0-16.71-2.95-30.42-8.73-40.77ZM361.41,45.43h20.28c14.46,0,21.53,9.23,21.53,28.22v16.29c0,20.32-7.69,29.01-25.72,29.01h-16.08V45.43ZM407.79,223.5c0,10.06-1.75,17-5.32,21.15-3.41,3.95-8.69,5.78-16.62,5.78h-24.44v-86.02h18.62c10.6,0,17.16,2.16,21.36,7.06,4.36,5.07,6.4,13.51,6.4,26.56v25.47Z"/>
  <polygon class="cls-1" points="580.68 0 515.34 0 467.16 295.88 513.52 295.88 521.45 238.7 527.81 195.34 546.15 63.19 564.87 195.34 571.24 238.7 579.17 295.88 628.87 295.88 580.94 1.55 580.68 0"/>
</svg>