<?xml version="1.0" encoding="UTF-8"?>
<svg id="grafiche" xmlns="http://www.w3.org/2000/svg" version="1.1" viewBox="0 0 318.65 253.72">
  <!-- Generator: Adobe Illustrator 29.2.1, SVG Export Plug-In . SVG Version: 2.1.0 Build 116)  -->
  <defs>
    <style>
      .st0 {
        fill: #ff7230;
      }
    </style>
  </defs>
  <polygon class="st0" points="23.26 79.61 37.96 79.61 37.96 16.32 61.22 16.32 61.22 3.99 0 3.99 0 16.32 23.26 16.32 23.26 79.61"/>
  <path class="st0" d="M80.64,46.6c.02-2.58.53-4.79,1.51-6.61.98-1.82,2.35-3.22,4.1-4.19,1.75-.97,3.74-1.46,5.98-1.46,3.35,0,5.96,1.02,7.83,3.06,1.87,2.04,2.81,4.89,2.81,8.53v33.68h14.55v-36.11c.02-4.5-.78-8.34-2.4-11.52-1.62-3.18-3.91-5.61-6.85-7.29-2.94-1.69-6.38-2.53-10.32-2.53-4.31,0-7.88.94-10.71,2.83-2.83,1.88-4.9,4.46-6.2,7.74h-.67V3.99h-14.18v75.62h14.55v-33.01Z"/>
  <path class="st0" d="M132.15,15.21c2.22,0,4.12-.74,5.71-2.23s2.38-3.28,2.38-5.37-.79-3.88-2.38-5.37-3.5-2.23-5.74-2.23-4.12.75-5.72,2.23c-1.6,1.49-2.4,3.28-2.4,5.37s.8,3.88,2.4,5.37c1.6,1.49,3.52,2.23,5.76,2.23Z"/>
  <rect class="st0" x="124.8" y="22.89" width="14.55" height="56.72"/>
  <path class="st0" d="M161.43,46.6c.02-2.58.52-4.79,1.48-6.61.96-1.82,2.3-3.22,4.01-4.19,1.71-.97,3.67-1.46,5.89-1.46,3.3,0,5.88,1.03,7.75,3.08,1.87,2.06,2.81,4.89,2.81,8.51v33.68h14.55v-36.11c.02-4.46-.78-8.28-2.4-11.46-1.62-3.19-3.9-5.63-6.81-7.33-2.92-1.7-6.35-2.55-10.28-2.55-4.21,0-7.77.95-10.69,2.86-2.92,1.91-5.02,4.47-6.3,7.7h-.67v-9.82h-13.88v56.72h14.55v-33.01Z"/>
  <polygon class="st0" points="219.84 61.08 224.4 56.03 240.82 79.61 258.02 79.61 235.33 47.42 256.84 22.89 240 22.89 220.73 45.05 219.84 45.05 219.84 3.99 205.29 3.99 205.29 79.61 219.84 79.61 219.84 61.08"/>
  <polygon class="st0" points="42.98 143.29 21.34 90.49 3.1 90.49 3.1 166.11 17.43 166.11 17.43 115.38 18.09 115.38 38.33 165.82 48.52 165.82 68.76 115.52 69.42 115.52 69.42 166.11 83.75 166.11 83.75 90.49 65.51 90.49 43.87 143.29 42.98 143.29"/>
  <path class="st0" d="M103.94,110.56c-3.35,1.27-6.13,3.12-8.35,5.54-2.22,2.42-3.75,5.36-4.62,8.81l13.52,1.48c.61-1.9,1.81-3.51,3.6-4.86,1.78-1.34,4.2-2.01,7.26-2.01,2.88,0,5.1.7,6.67,2.1,1.56,1.4,2.34,3.38,2.34,5.95v.22c0,1.23-.47,2.16-1.4,2.77-.94.62-2.42,1.07-4.47,1.37-2.04.3-4.71.62-8.01.96-2.78.27-5.45.74-8.01,1.4-2.56.67-4.85,1.64-6.87,2.92-2.02,1.28-3.61,2.98-4.78,5.1-1.17,2.12-1.75,4.76-1.75,7.94,0,3.74.82,6.87,2.47,9.38,1.65,2.51,3.9,4.41,6.74,5.69,2.84,1.28,6.07,1.92,9.69,1.92,2.88,0,5.4-.39,7.57-1.18,2.17-.79,4-1.86,5.5-3.21,1.5-1.35,2.68-2.87,3.54-4.54h.44v7.83h13.88v-38.11c0-3.57-.67-6.58-1.99-9.05-1.33-2.46-3.12-4.45-5.37-5.96s-4.78-2.62-7.57-3.3c-2.79-.69-5.67-1.03-8.62-1.03-4.26,0-8.06.63-11.41,1.9ZM124.44,145.8c0,2.04-.52,3.9-1.57,5.58-1.05,1.67-2.5,3.01-4.38,4.01-1.87,1-4.05,1.5-6.54,1.5s-4.72-.6-6.41-1.79c-1.69-1.19-2.53-2.94-2.53-5.22,0-1.6.42-2.92,1.26-3.97.84-1.05,1.99-1.87,3.47-2.47,1.48-.6,3.18-1.04,5.1-1.31.89-.12,1.89-.26,3.01-.42,1.12-.16,2.25-.35,3.4-.57,1.14-.22,2.18-.47,3.1-.74.92-.27,1.62-.58,2.09-.92v6.35Z"/>
  <polygon class="st0" points="160.69 147.58 165.26 142.53 181.67 166.11 198.87 166.11 176.19 133.92 197.69 109.39 180.85 109.39 161.58 131.55 160.69 131.55 160.69 90.49 146.15 90.49 146.15 166.11 160.69 166.11 160.69 147.58"/>
  <path class="st0" d="M225.83,167.22c4.55,0,8.58-.7,12.07-2.09,3.5-1.39,6.36-3.35,8.6-5.87,2.24-2.52,3.74-5.48,4.5-8.88l-13.51-1.18c-.57,1.5-1.4,2.77-2.49,3.8s-2.4,1.82-3.91,2.34c-1.51.53-3.19.79-5.04.79-2.76,0-5.16-.59-7.2-1.77-2.04-1.18-3.63-2.87-4.76-5.06-1.11-2.15-1.67-4.73-1.69-7.72h39.06v-4.21c0-4.9-.68-9.15-2.05-12.76s-3.26-6.59-5.67-8.96-5.21-4.12-8.38-5.28c-3.18-1.16-6.57-1.74-10.19-1.74-5.49,0-10.27,1.23-14.35,3.69-4.07,2.46-7.23,5.9-9.47,10.32-2.24,4.42-3.36,9.54-3.36,15.38s1.12,11.12,3.36,15.49c2.24,4.37,5.44,7.74,9.6,10.12,4.16,2.38,9.12,3.56,14.88,3.56ZM218.63,121.54c1.94-1.21,4.2-1.81,6.76-1.81,2.41,0,4.54.54,6.37,1.62,1.83,1.08,3.27,2.56,4.3,4.43,1.03,1.87,1.56,4.01,1.59,6.42h-25.21c.11-2.13.64-4.1,1.64-5.89,1.1-1.98,2.62-3.58,4.56-4.78Z"/>
  <polygon class="st0" points="3.1 252.61 17.95 252.61 17.95 220.93 49.04 220.93 49.04 208.6 17.95 208.6 17.95 189.32 52.36 189.32 52.36 176.99 3.1 176.99 3.1 252.61"/>
  <path class="st0" d="M94.16,228.61c0,2.71-.55,4.97-1.64,6.78-1.1,1.81-2.52,3.18-4.27,4.1-1.75.92-3.59,1.38-5.54,1.38-3.08,0-5.55-1.02-7.42-3.05-1.87-2.03-2.82-4.78-2.84-8.25v-33.68h-14.55v36.11c0,4.48.81,8.31,2.42,11.48,1.61,3.17,3.85,5.61,6.7,7.31,2.86,1.7,6.17,2.55,9.93,2.55,4.26,0,7.86-1.01,10.8-3.03,2.94-2.02,5.05-4.65,6.33-7.9h.59v10.19h14.03v-56.72h-14.55v32.72Z"/>
  <path class="st0" d="M142.51,241.22c-.73.14-1.48.2-2.27.2-1.08,0-2.05-.17-2.9-.5-.85-.33-1.53-.94-2.03-1.81s-.76-2.12-.76-3.75v-28.4h10.93v-11.08h-10.93v-13.59h-14.55v13.59h-7.9v11.08h7.9v30.54c-.02,3.62.74,6.63,2.31,9.03,1.56,2.4,3.73,4.17,6.5,5.32,2.77,1.14,5.94,1.66,9.51,1.53,1.97-.07,3.64-.26,5.02-.57,1.38-.31,2.44-.58,3.18-.83l-2.36-11.08c-.37.07-.92.18-1.64.31Z"/>
  <path class="st0" d="M186.83,228.61c0,2.71-.55,4.97-1.64,6.78-1.1,1.81-2.52,3.18-4.27,4.1-1.75.92-3.59,1.38-5.54,1.38-3.08,0-5.55-1.02-7.42-3.05-1.87-2.03-2.82-4.78-2.84-8.25v-33.68h-14.55v36.11c0,4.48.81,8.31,2.42,11.48,1.61,3.17,3.85,5.61,6.7,7.31,2.86,1.7,6.17,2.55,9.93,2.55,4.26,0,7.86-1.01,10.8-3.03,2.94-2.02,5.05-4.65,6.33-7.9h.59v10.19h14.03v-56.72h-14.55v32.72Z"/>
  <path class="st0" d="M237.42,195.08c-3.2,0-6.04.9-8.53,2.7-2.49,1.8-4.25,4.39-5.28,7.79h-.59v-9.67h-14.11v56.72h14.55v-32.72c0-2.36.54-4.45,1.62-6.26,1.08-1.81,2.56-3.22,4.43-4.25,1.87-1.02,3.99-1.53,6.35-1.53,1.11,0,2.29.09,3.56.26,1.27.17,2.22.36,2.86.55v-13.11c-.64-.15-1.42-.26-2.34-.35-.92-.09-1.77-.13-2.53-.13Z"/>
  <path class="st0" d="M288.56,202.17c-2.41-2.36-5.21-4.12-8.38-5.28-3.18-1.16-6.57-1.74-10.19-1.74-5.49,0-10.27,1.23-14.35,3.69-4.07,2.46-7.23,5.9-9.47,10.32-2.24,4.42-3.36,9.54-3.36,15.38s1.12,11.12,3.36,15.49c2.24,4.37,5.44,7.74,9.6,10.12,4.16,2.38,9.12,3.56,14.88,3.56,4.55,0,8.58-.7,12.07-2.09,3.5-1.39,6.36-3.35,8.6-5.87,2.24-2.52,3.74-5.48,4.5-8.88l-13.51-1.18c-.57,1.5-1.4,2.77-2.49,3.8s-2.4,1.82-3.91,2.34c-1.51.53-3.19.79-5.04.79-2.76,0-5.16-.59-7.2-1.77-2.04-1.18-3.63-2.87-4.76-5.06-1.11-2.15-1.67-4.73-1.69-7.72h39.06v-4.21c0-4.9-.68-9.15-2.05-12.76s-3.26-6.59-5.67-8.96ZM257.25,218.71c.11-2.13.64-4.1,1.64-5.89,1.1-1.98,2.62-3.58,4.56-4.78,1.94-1.21,4.2-1.81,6.76-1.81,2.41,0,4.54.54,6.37,1.62,1.83,1.08,3.27,2.56,4.3,4.43,1.03,1.87,1.56,4.01,1.59,6.42h-25.21Z"/>
  <path class="st0" d="M316.1,239.06c-1.7-1.65-3.68-2.47-5.94-2.47s-4.35.83-6.02,2.47c-1.67,1.65-2.5,3.63-2.47,5.95-.02,2.34.8,4.34,2.47,6,1.67,1.66,3.68,2.49,6.02,2.49,1.53,0,2.93-.38,4.21-1.14,1.28-.76,2.31-1.79,3.1-3.08.79-1.29,1.18-2.71,1.18-4.26,0-2.31-.85-4.3-2.55-5.95Z"/>
  <rect class="st0" x="260.37" y="90.41" width="34.49" height="10.8"/>
  <polygon class="st0" points="292.12 149.74 281.27 157.01 282.14 144.05 273.13 144.05 273.97 157.01 263.12 149.74 258.63 157.64 270.32 163.34 258.63 169.03 263.12 176.93 273.97 169.67 273.13 182.62 282.14 182.62 281.27 169.67 292.12 176.93 296.6 169.03 284.95 163.34 296.6 157.64 292.12 149.74"/>
</svg>